<?xml version="1.0" encoding="UTF-8" standalone="no"?>
<!-- Generator: Adobe Illustrator 19.0.0, SVG Export Plug-In . SVG Version: 6.00 Build 0)  -->

<svg
   xmlns:dc="http://purl.org/dc/elements/1.1/"
   xmlns:cc="http://creativecommons.org/ns#"
   xmlns:rdf="http://www.w3.org/1999/02/22-rdf-syntax-ns#"
   xmlns:svg="http://www.w3.org/2000/svg"
   xmlns="http://www.w3.org/2000/svg"
   xmlns:sodipodi="http://sodipodi.sourceforge.net/DTD/sodipodi-0.dtd"
   xmlns:inkscape="http://www.inkscape.org/namespaces/inkscape"
   version="1.1"
   id="Layer_1"
   x="0px"
   y="0px"
   viewBox="0 0 450 450"
   xml:space="preserve"
   inkscape:version="0.91 r13725"
   sodipodi:docname="ciclovisão-cg-logo.svg"
   width="450"
   height="450"><metadata
     id="metadata49"><rdf:RDF><cc:Work
         rdf:about=""><dc:format>image/svg+xml</dc:format><dc:type
           rdf:resource="http://purl.org/dc/dcmitype/StillImage" /><dc:title></dc:title></cc:Work></rdf:RDF></metadata><defs
     id="defs47" /><sodipodi:namedview
     pagecolor="#ffffff"
     bordercolor="#666666"
     borderopacity="1"
     objecttolerance="10"
     gridtolerance="10"
     guidetolerance="10"
     inkscape:pageopacity="0"
     inkscape:pageshadow="2"
     inkscape:window-width="1920"
     inkscape:window-height="1024"
     id="namedview45"
     showgrid="false"
     inkscape:zoom="0.921875"
     inkscape:cx="382.89017"
     inkscape:cy="228.63234"
     inkscape:window-x="0"
     inkscape:window-y="30"
     inkscape:window-maximized="1"
     inkscape:current-layer="Layer_1" /><rect
     style="fill:#4a545f;fill-opacity:1;stroke:#ffffff;stroke-width:8;stroke-linecap:round;stroke-linejoin:round;stroke-miterlimit:4;stroke-dasharray:none;stroke-opacity:1"
     id="rect4749"
     width="450"
     height="450"
     x="0"
     y="0"
     ry="0" /><g
     id="g15"
     transform="translate(0,-62)" /><g
     id="g17"
     transform="translate(0,-62)" /><g
     id="g19"
     transform="translate(0,-62)" /><g
     id="g21"
     transform="translate(0,-62)" /><g
     id="g23"
     transform="translate(0,-62)" /><g
     id="g25"
     transform="translate(0,-62)" /><g
     id="g27"
     transform="translate(0,-62)" /><g
     id="g29"
     transform="translate(0,-62)" /><g
     id="g31"
     transform="translate(0,-62)" /><g
     id="g33"
     transform="translate(0,-62)" /><g
     id="g35"
     transform="translate(0,-62)" /><g
     id="g37"
     transform="translate(0,-62)" /><g
     id="g39"
     transform="translate(0,-62)" /><g
     id="g41"
     transform="translate(0,-62)" /><g
     id="g43"
     transform="translate(0,-62)" /><g
     id="g4690"
     transform="matrix(0.64830509,0,0,0.64830509,59.033893,99.228809)"><circle
       id="circle3"
       r="256"
       cy="194"
       cx="256"
       style="fill:#28bccc;fill-opacity:1" /><g
       transform="translate(0,-62)"
       id="g4619"><circle
         style="fill:#ffedb5"
         cx="206.23793"
         cy="170.00072"
         r="29.027649"
         id="circle7" /><circle
         style="fill:#fee187"
         cx="305.76163"
         cy="170.00072"
         r="29.027649"
         id="circle9" /><path
         style="fill:#ffd42a"
         d="m 305.76162,137.95701 c -4.9295,0 -9.60095,1.12096 -13.77731,3.11838 l -13.36575,-17.82071 18.84938,0 c 1.66548,0 3.01605,-1.35057 3.01605,-3.01603 0,-1.66548 -1.35057,-3.01605 -3.01605,-3.01605 l -24.88102,0 c -1.14239,0 -2.18637,0.64555 -2.69765,1.66722 -0.51039,1.02168 -0.40018,2.24455 0.28517,3.15819 l 5.71149,7.61489 -50.04503,0 0,-6.40865 9.42469,0 c 1.66548,0 3.01604,-1.35057 3.01604,-3.01604 0,-1.66547 -1.35056,-3.01605 -3.01604,-3.01605 l -24.88103,0 c -1.66547,0 -3.01604,1.35058 -3.01604,3.01605 0,1.66547 1.35057,3.01604 3.01604,3.01604 l 9.4247,0 0,8.93529 -2.57125,7.71329 c -3.43197,-1.25829 -7.13773,-1.94538 -11.00051,-1.94538 -17.66938,0 -32.04368,14.37431 -32.04368,32.04369 0,17.66938 14.3743,32.04369 32.04368,32.04369 16.65121,0 30.3721,-12.76832 31.89762,-29.02766 l 18.99546,0 0,6.40866 -9.42469,0 c -1.66547,0 -3.01604,1.35057 -3.01604,3.01604 0,1.66547 1.35057,3.01604 3.01604,3.01604 l 12.44029,0 c 1.66547,0 3.01605,-1.35057 3.01605,-3.01604 l 0,-9.4247 10.70177,0 c 1.52508,16.25934 15.24597,29.02766 31.89762,29.02766 17.66937,0 32.04369,-14.37431 32.04369,-32.04369 0,-17.66938 -14.3752,-32.04413 -32.04369,-32.04413 z m -99.52368,58.0553 c -14.34281,0 -26.01204,-11.66923 -26.01204,-26.01204 0,-14.34282 11.66923,-26.01205 26.01204,-26.01205 3.19668,0 6.25951,0.583 9.09055,1.64272 l -7.80514,23.41676 c -0.30615,0.91976 -0.15221,1.93094 0.41461,2.71731 0.56682,0.78638 1.47698,1.25216 2.4466,1.25216 l 21.6848,0 c -1.50015,12.92621 -12.50897,22.99514 -25.83142,22.99514 z m 14.51689,-47.58575 c 6.14099,4.14618 10.41926,10.84348 11.31496,18.5581 l -17.50056,0 6.1856,-18.5581 z m 39.39179,6.11737 c -1.66547,0 -3.01604,1.35057 -3.01604,3.01604 l 0,9.42469 -18.99546,0 c -0.97358,-10.3777 -6.91381,-19.33092 -15.41566,-24.45198 l 2.27909,-6.8377 55.411,0 6.37804,8.50406 c -7.15742,5.27762 -12.04755,13.4554 -12.92314,22.78562 l -10.70179,0 0,-9.42469 c -4.3e-4,-1.66547 -1.35057,-3.01604 -3.01604,-3.01604 z m 30.25839,-5.52125 13.47202,17.96198 -23.94682,0 c 0.85372,-7.35729 4.78604,-13.78649 10.4748,-17.96198 z m 15.35661,46.98963 c -13.32245,0 -24.33126,-10.06936 -25.83185,-22.996 l 29.97847,0 c 1.14238,0 2.18638,-0.64555 2.69764,-1.66722 0.5104,-1.02167 0.40021,-2.24454 -0.28517,-3.15818 l -16.62933,-22.1729 c 3.09871,-1.30596 6.50138,-2.02979 10.06981,-2.02979 14.34281,0 26.01202,11.66923 26.01202,26.01205 0,14.34281 -11.66877,26.01204 -26.01159,26.01204 z"
         id="path11"
         inkscape:connector-curvature="0" /><path
         style="fill:#ffd42a"
         d="m 305.76162,137.95701 c -4.9295,0 -9.60095,1.12096 -13.77731,3.11838 l -13.36575,-17.82071 18.84938,0 c 1.66548,0 3.01605,-1.35057 3.01605,-3.01603 0,-1.66548 -1.35057,-3.01605 -3.01605,-3.01605 l -24.88102,0 c -1.14239,0 -2.18637,0.64555 -2.69765,1.66722 -0.51039,1.02168 -0.40018,2.24455 0.28517,3.15819 l 5.71149,7.61489 -18.12599,0 0,6.03165 22.65005,0 6.37803,8.50404 c -7.15741,5.27763 -12.04753,13.45541 -12.92314,22.78563 l -10.70178,0 0,-9.42469 c 0,-1.66546 -1.35057,-3.01604 -3.01604,-3.01604 -0.97707,0 -1.83605,0.47191 -2.38712,1.19181 l 0,29.72087 2.38712,0 c 1.66547,0 3.01604,-1.35058 3.01604,-3.01604 l 0,-9.4247 10.70178,0 c 1.52508,16.25934 15.24597,29.02764 31.89762,29.02764 17.66936,0 32.04369,-14.37429 32.04369,-32.04368 0,-17.66939 -14.37608,-32.04238 -32.04457,-32.04238 z m -15.35661,11.06567 13.47202,17.96198 -23.94682,0 c 0.85372,-7.35729 4.78604,-13.78649 10.4748,-17.96198 z m 15.35661,46.98963 c -13.32245,0 -24.33126,-10.06936 -25.83185,-22.996 l 29.97847,0 c 1.14238,0 2.18638,-0.64555 2.69764,-1.66722 0.5104,-1.02167 0.40021,-2.24454 -0.28517,-3.15818 l -16.62933,-22.1729 c 3.09871,-1.30596 6.50138,-2.02979 10.06981,-2.02979 14.34281,0 26.01202,11.66923 26.01202,26.01205 0,14.34281 -11.66877,26.01204 -26.01159,26.01204 z"
         id="path13"
         inkscape:connector-curvature="0" /><g
         id="g3517"
         transform="matrix(0.10421553,0,0,0.10421553,179.80602,143.47136)"><path
           id="path3467"
           d="M 252.062,0 C 113.034,0 0,113.034 0,252.062 0,391.09 113.034,504.124 252.062,504.124 391.09,504.124 504.124,391.09 504.124,252.062 504.124,113.034 391.089,0 252.062,0 Z"
           style="fill:#ededed"
           inkscape:connector-curvature="0" /><path
           id="path3469"
           d="m 252.062,110.277 c 78.375,0 141.785,63.409 141.785,141.785 0,78.376 -63.409,141.785 -141.785,141.785 -78.376,0 -141.785,-63.409 -141.785,-141.785 0,-78.376 63.409,-141.785 141.785,-141.785 z"
           style="fill:#3db39e"
           inkscape:connector-curvature="0" /><path
           id="path3471"
           d="m 299.323,165.415 c 17.329,0 31.508,14.178 31.508,31.508 0,17.33 -14.178,31.508 -31.508,31.508 -17.329,0 -31.508,-14.178 -31.508,-31.508 0,-17.33 14.179,-31.508 31.508,-31.508 z"
           style="fill:#9ed9cf"
           inkscape:connector-curvature="0" /><path
           id="path3473"
           d="m 252.062,181.169 c 38.991,0 70.892,31.902 70.892,70.892 0,38.99 -31.902,70.892 -70.892,70.892 -38.99,0 -70.892,-31.508 -70.892,-70.892 0,-39.384 31.901,-70.892 70.892,-70.892 z"
           style="fill:#324d5b"
           inkscape:connector-curvature="0" /><path
           id="path3475"
           d="m 270.572,183.532 c -1.969,3.938 -2.757,8.665 -2.757,13.391 0,17.329 14.178,31.508 31.508,31.508 6.302,0 12.603,-1.969 17.329,-5.12 -8.27,-19.299 -25.206,-33.871 -46.08,-39.779 z"
           style="fill:#99a6ad"
           inkscape:connector-curvature="0" /><path
           id="path3477"
           d="m 263.877,311.138 c -38.991,0 -70.892,-31.902 -70.892,-70.892 0,-16.542 5.908,-31.902 15.36,-43.717 -16.542,12.997 -27.175,33.083 -27.175,55.532 0,38.991 31.902,70.892 70.892,70.892 22.449,0 42.535,-10.634 55.532,-27.175 -11.816,9.847 -27.176,15.36 -43.717,15.36 z"
           style="fill:#2b424d"
           inkscape:connector-curvature="0" /><path
           id="path3479"
           d="m 271.754,370.215 c -78.375,0 -141.785,-63.409 -141.785,-141.785 0,-28.751 8.665,-55.926 23.631,-78.375 -26.782,25.994 -43.323,61.834 -43.323,102.006 0,78.375 63.409,141.785 141.785,141.785 49.231,0 92.948,-25.206 118.154,-63.409 -25.601,24.418 -60.259,39.778 -98.462,39.778 z"
           style="fill:#37a18e"
           inkscape:connector-curvature="0" /><g
           id="g3481" /><g
           id="g3483" /><g
           id="g3485" /><g
           id="g3487" /><g
           id="g3489" /><g
           id="g3491" /><g
           id="g3493" /><g
           id="g3495" /><g
           id="g3497" /><g
           id="g3499" /><g
           id="g3501" /><g
           id="g3503" /><g
           id="g3505" /><g
           id="g3507" /><g
           id="g3509" /></g><g
         transform="matrix(0.10421553,0,0,0.10421553,279.43536,143.47136)"
         id="g3587"><path
           inkscape:connector-curvature="0"
           style="fill:#ededed"
           d="M 252.062,0 C 113.034,0 0,113.034 0,252.062 0,391.09 113.034,504.124 252.062,504.124 391.09,504.124 504.124,391.09 504.124,252.062 504.124,113.034 391.089,0 252.062,0 Z"
           id="path3589" /><path
           inkscape:connector-curvature="0"
           style="fill:#3db39e"
           d="m 252.062,110.277 c 78.375,0 141.785,63.409 141.785,141.785 0,78.376 -63.409,141.785 -141.785,141.785 -78.376,0 -141.785,-63.409 -141.785,-141.785 0,-78.376 63.409,-141.785 141.785,-141.785 z"
           id="path3591" /><path
           inkscape:connector-curvature="0"
           style="fill:#9ed9cf"
           d="m 299.323,165.415 c 17.329,0 31.508,14.178 31.508,31.508 0,17.33 -14.178,31.508 -31.508,31.508 -17.329,0 -31.508,-14.178 -31.508,-31.508 0,-17.33 14.179,-31.508 31.508,-31.508 z"
           id="path3593" /><path
           inkscape:connector-curvature="0"
           style="fill:#324d5b"
           d="m 252.062,181.169 c 38.991,0 70.892,31.902 70.892,70.892 0,38.99 -31.902,70.892 -70.892,70.892 -38.99,0 -70.892,-31.508 -70.892,-70.892 0,-39.384 31.901,-70.892 70.892,-70.892 z"
           id="path3595" /><path
           inkscape:connector-curvature="0"
           style="fill:#99a6ad"
           d="m 270.572,183.532 c -1.969,3.938 -2.757,8.665 -2.757,13.391 0,17.329 14.178,31.508 31.508,31.508 6.302,0 12.603,-1.969 17.329,-5.12 -8.27,-19.299 -25.206,-33.871 -46.08,-39.779 z"
           id="path3597" /><path
           inkscape:connector-curvature="0"
           style="fill:#2b424d"
           d="m 263.877,311.138 c -38.991,0 -70.892,-31.902 -70.892,-70.892 0,-16.542 5.908,-31.902 15.36,-43.717 -16.542,12.997 -27.175,33.083 -27.175,55.532 0,38.991 31.902,70.892 70.892,70.892 22.449,0 42.535,-10.634 55.532,-27.175 -11.816,9.847 -27.176,15.36 -43.717,15.36 z"
           id="path3599" /><path
           inkscape:connector-curvature="0"
           style="fill:#37a18e"
           d="m 271.754,370.215 c -78.375,0 -141.785,-63.409 -141.785,-141.785 0,-28.751 8.665,-55.926 23.631,-78.375 -26.782,25.994 -43.323,61.834 -43.323,102.006 0,78.375 63.409,141.785 141.785,141.785 49.231,0 92.948,-25.206 118.154,-63.409 -25.601,24.418 -60.259,39.778 -98.462,39.778 z"
           id="path3601" /><g
           id="g3603" /><g
           id="g3605" /><g
           id="g3607" /><g
           id="g3609" /><g
           id="g3611" /><g
           id="g3613" /><g
           id="g3615" /><g
           id="g3617" /><g
           id="g3619" /><g
           id="g3621" /><g
           id="g3623" /><g
           id="g3625" /><g
           id="g3627" /><g
           id="g3629" /><g
           id="g3631" /></g></g><text
       sodipodi:linespacing="125%"
       id="text4433"
       y="227.57944"
       x="43.765507"
       style="font-style:normal;font-weight:normal;font-size:87.15995789px;line-height:125%;font-family:sans-serif;letter-spacing:0px;word-spacing:0px;fill:#000000;fill-opacity:1;stroke:none;stroke-width:1px;stroke-linecap:butt;stroke-linejoin:miter;stroke-opacity:1"
       xml:space="preserve"><tspan
         style="font-style:normal;font-variant:normal;font-weight:bold;font-stretch:normal;font-family:Ubuntu;-inkscape-font-specification:Ubuntu;fill:#ffffff"
         y="227.57944"
         x="43.765507"
         id="tspan4435"
         sodipodi:role="line"><tspan
   id="tspan4563"
   style="font-weight:normal">Ciclo</tspan>Visão</tspan></text>
<text
       xml:space="preserve"
       style="font-style:normal;font-weight:normal;font-size:58.22386932px;line-height:125%;font-family:sans-serif;letter-spacing:0px;word-spacing:0px;fill:#ffd42a;fill-opacity:1;stroke:none;stroke-width:1px;stroke-linecap:butt;stroke-linejoin:miter;stroke-opacity:1"
       x="153.62492"
       y="294.80991"
       id="text4449"
       sodipodi:linespacing="125%"><tspan
         sodipodi:role="line"
         id="tspan4451"
         x="153.62492"
         y="294.80991"
         style="font-style:normal;font-variant:normal;font-weight:normal;font-stretch:normal;font-family:'Lobster 1.4';-inkscape-font-specification:'Lobster 1.4, ';fill:#ffd42a">Campina</tspan></text>
</g></svg>