<?xml version="1.0" encoding="UTF-8" standalone="no"?>
<!-- Created with Inkscape (http://www.inkscape.org/) -->

<svg
   xmlns:dc="http://purl.org/dc/elements/1.1/"
   xmlns:cc="http://creativecommons.org/ns#"
   xmlns:rdf="http://www.w3.org/1999/02/22-rdf-syntax-ns#"
   xmlns:svg="http://www.w3.org/2000/svg"
   xmlns="http://www.w3.org/2000/svg"
   xmlns:sodipodi="http://sodipodi.sourceforge.net/DTD/sodipodi-0.dtd"
   xmlns:inkscape="http://www.inkscape.org/namespaces/inkscape"
   width="297mm"
   height="82mm"
   viewBox="0 0 1052.3622 290.55101"
   id="svg2"
   version="1.1"
   inkscape:version="0.91 r13725"
   sodipodi:docname="contribua-logo.svg"
   inkscape:export-filename="/home/lamm/Projetos/pedal-teste/contribua-logo.png"
   inkscape:export-xdpi="90"
   inkscape:export-ydpi="90">
  <defs
     id="defs4" />
  <sodipodi:namedview
     id="base"
     pagecolor="#ffffff"
     bordercolor="#666666"
     borderopacity="1.0"
     inkscape:pageopacity="0.0"
     inkscape:pageshadow="2"
     inkscape:zoom="0.5"
     inkscape:cx="917.1811"
     inkscape:cy="421.52028"
     inkscape:document-units="px"
     inkscape:current-layer="layer1"
     showgrid="false"
     inkscape:window-width="1920"
     inkscape:window-height="1024"
     inkscape:window-x="0"
     inkscape:window-y="30"
     inkscape:window-maximized="1" />
  <metadata
     id="metadata7">
    <rdf:RDF>
      <cc:Work
         rdf:about="">
        <dc:format>image/svg+xml</dc:format>
        <dc:type
           rdf:resource="http://purl.org/dc/dcmitype/StillImage" />
        <dc:title></dc:title>
      </cc:Work>
    </rdf:RDF>
  </metadata>
  <g
     inkscape:label="Camada 1"
     inkscape:groupmode="layer"
     id="layer1"
     transform="translate(0,-761.81139)">
    <g
       style="font-style:normal;font-weight:normal;font-size:40px;line-height:125%;font-family:sans-serif;letter-spacing:0px;word-spacing:0px;fill:#ffffff;fill-opacity:1;stroke:#ffffff;stroke-width:1.76600683;stroke-linecap:round;stroke-linejoin:round;stroke-miterlimit:4;stroke-dasharray:none;stroke-opacity:1"
       id="text3336"
       transform="matrix(5.6402796,0,0,5.6847931,4944.8671,-3172.0176)">
      <path
         d="m -851.23057,732.01415 q -1.33213,0.27603 -2.92829,0.45604 -1.59616,0.18002 -3.44435,0.18002 -2.25622,0 -3.97239,-0.36003 -1.70417,-0.37204 -2.9523,-1.12812 -1.24812,-0.76807 -2.07621,-1.92019 -0.82808,-1.16412 -1.32013,-2.74827 -0.49205,-1.58416 -0.69607,-3.60036 -0.20402,-2.02821 -0.20402,-4.51246 0,-2.48424 0.20402,-4.50045 0.20402,-2.0282 0.69607,-3.61236 0.50405,-1.58416 1.32013,-2.74827 0.82809,-1.16412 2.07621,-1.92019 1.24813,-0.75608 2.9523,-1.11612 1.71617,-0.37203 3.97239,-0.37203 1.82419,0 3.43235,0.16801 1.60816,0.16802 2.94029,0.44405 l -0.28803,2.46024 q -1.15211,-0.16801 -2.41224,-0.30003 -1.24812,-0.14401 -2.47225,-0.14401 -2.14821,0 -3.67236,0.34804 -1.51215,0.33603 -2.54426,1.0081 -1.0321,0.66006 -1.64416,1.64416 -0.60006,0.9841 -0.92409,2.28023 -0.31204,1.29613 -0.40805,2.89229 -0.084,1.58416 -0.084,3.46834 0,1.88419 0.096,3.48035 0.10801,1.59616 0.43204,2.89229 0.32403,1.29613 0.93609,2.28023 0.62406,0.9841 1.65617,1.65617 1.0321,0.66006 2.53225,0.99609 1.51215,0.33604 3.62436,0.33604 1.23613,0 2.46025,-0.12001 1.22412,-0.13202 2.43624,-0.31203 l 0.27603,2.42424 z"
         style="font-style:normal;font-variant:normal;font-weight:normal;font-stretch:normal;font-family:FlexoW01-Regular;-inkscape-font-specification:FlexoW01-Regular;fill:#ffffff;stroke:#ffffff;stroke-width:1.76600683;stroke-linecap:round;stroke-linejoin:round;stroke-miterlimit:4;stroke-dasharray:none;stroke-opacity:1"
         id="path3345"
         inkscape:connector-curvature="0" />
      <path
         d="m -838.33952,732.65021 q -2.58026,0 -4.36844,-0.58806 -1.78818,-0.58806 -2.90429,-1.89619 -1.11611,-1.30813 -1.62016,-3.39634 -0.49205,-2.10021 -0.49205,-5.10051 0,-3.0003 0.49205,-5.08851 0.50405,-2.0882 1.62016,-3.39634 1.11611,-1.30813 2.90429,-1.89618 1.78818,-0.58806 4.36844,-0.58806 2.59226,0 4.38044,0.61206 1.78817,0.60006 2.89229,1.92019 1.11611,1.30813 1.60816,3.39634 0.50405,2.08821 0.50405,5.0405 0,2.9403 -0.50405,5.02851 -0.49205,2.0882 -1.60816,3.40834 -1.10412,1.32013 -2.89229,1.93219 -1.78818,0.61206 -4.38044,0.61206 z m 0,-2.46024 q 1.83618,0 3.07231,-0.40805 1.23612,-0.42004 1.98019,-1.40414 0.75608,-0.9961 1.08011,-2.62826 0.32403,-1.64416 0.32403,-4.08041 0,-2.43624 -0.32403,-4.0684 -0.31203,-1.63217 -1.06811,-2.61627 -0.74407,-0.99609 -1.98019,-1.40414 -1.23613,-0.42004 -3.08431,-0.42004 -1.20012,0 -2.14822,0.16802 -0.94809,0.15601 -1.66816,0.54005 -0.70807,0.37204 -1.21212,1.0081 -0.50406,0.62407 -0.81609,1.57216 -0.31203,0.9481 -0.45604,2.24423 -0.14402,1.28412 -0.14402,2.97629 0,1.69217 0.14402,2.9883 0.14401,1.28413 0.45604,2.23223 0.31203,0.94809 0.81609,1.58415 0.50405,0.62407 1.21212,1.0081 0.72007,0.38404 1.66816,0.55206 0.9481,0.15602 2.14822,0.15602 z"
         style="font-style:normal;font-variant:normal;font-weight:normal;font-stretch:normal;font-family:FlexoW01-Regular;-inkscape-font-specification:FlexoW01-Regular;fill:#ffffff;stroke:#ffffff;stroke-width:1.76600683;stroke-linecap:round;stroke-linejoin:round;stroke-miterlimit:4;stroke-dasharray:none;stroke-opacity:1"
         id="path3347"
         inkscape:connector-curvature="0" />
      <path
         d="m -820.40399,732.36218 -2.90429,0 0,-16.22562 q 0,-1.88419 0.10801,-3.64836 0.9121,-0.39604 1.9922,-0.72008 1.08011,-0.33603 2.30423,-0.56405 1.22413,-0.24003 2.56826,-0.37204 1.34413,-0.13201 2.78428,-0.13201 1.82418,0 3.12031,0.27602 1.30813,0.27603 2.19622,0.78008 0.90009,0.50405 1.42814,1.21212 0.54006,0.70807 0.81608,1.57216 0.28803,0.86409 0.37204,1.86019 0.096,0.9961 0.096,2.0762 l 0,13.88539 -2.91629,0 0,-13.35733 q 0,-1.0081 -0.084,-1.83619 -0.072,-0.82808 -0.30003,-1.47614 -0.22802,-0.64807 -0.64806,-1.12812 -0.42005,-0.48005 -1.09211,-0.79208 -0.67207,-0.31203 -1.64417,-0.46804 -0.97209,-0.15602 -2.31623,-0.15602 -0.67207,0 -1.47615,0.084 -0.79208,0.072 -1.59616,0.21602 -0.79207,0.13201 -1.51215,0.32403 -0.70807,0.19202 -1.21212,0.42005 -0.024,0.38403 -0.048,0.81608 -0.012,0.42004 -0.024,0.86408 0,0.43205 -0.012,0.86409 0,0.43204 0,0.80408 l 0,14.82148 z"
         style="font-style:normal;font-variant:normal;font-weight:normal;font-stretch:normal;font-family:FlexoW01-Regular;-inkscape-font-specification:FlexoW01-Regular;fill:#ffffff;stroke:#ffffff;stroke-width:1.76600683;stroke-linecap:round;stroke-linejoin:round;stroke-miterlimit:4;stroke-dasharray:none;stroke-opacity:1"
         id="path3349"
         inkscape:connector-curvature="0" />
      <path
         d="m -794.5173,704.95144 0,6.03661 4.76447,0 0,2.30423 -4.76447,0 0,13.36933 q 0,1.14012 0.20402,1.84819 0.20402,0.70807 0.63606,1.10411 0.44404,0.38404 1.12811,0.51605 0.69607,0.13201 1.66817,0.13201 0.30003,0 0.58806,-0.012 0.28803,-0.024 0.57606,-0.048 l 0.24002,2.22022 q -0.54005,0.096 -1.16412,0.15601 -0.61206,0.072 -1.15211,0.072 -1.47615,0 -2.54426,-0.32403 -1.0681,-0.32403 -1.75217,-1.0081 -0.68407,-0.68407 -1.0081,-1.74018 -0.32403,-1.0561 -0.32403,-2.52025 l 0,-13.76537 -3.9124,0 0,-2.30423 3.9124,0 0,-5.56856 2.90429,-0.46805 z"
         style="font-style:normal;font-variant:normal;font-weight:normal;font-stretch:normal;font-family:FlexoW01-Regular;-inkscape-font-specification:FlexoW01-Regular;fill:#ffffff;stroke:#ffffff;stroke-width:1.76600683;stroke-linecap:round;stroke-linejoin:round;stroke-miterlimit:4;stroke-dasharray:none;stroke-opacity:1"
         id="path3351"
         inkscape:connector-curvature="0" />
      <path
         d="m -784.88278,732.36218 0,-16.29763 q 0,-0.93609 0.024,-1.84818 0.036,-0.91209 0.096,-1.80018 0.87609,-0.46805 1.86019,-0.79208 0.9961,-0.32403 2.0162,-0.52805 1.0321,-0.20402 2.07621,-0.30003 1.0561,-0.096 2.06421,-0.096 0.54005,0 1.0321,0.024 0.49205,0.012 0.96009,0.072 l -0.24002,2.47224 q -0.39604,-0.048 -0.82808,-0.06 -0.43205,-0.024 -0.92409,-0.024 -0.61207,0 -1.29613,0.06 -0.67207,0.06 -1.35614,0.18002 -0.67207,0.12001 -1.32013,0.30003 -0.63607,0.18002 -1.17612,0.43204 -0.024,0.38404 -0.048,0.81608 -0.012,0.42005 -0.024,0.86409 0,0.44404 -0.012,0.87609 0,0.43204 0,0.80408 l 0,14.84548 -2.90429,0 z"
         style="font-style:normal;font-variant:normal;font-weight:normal;font-stretch:normal;font-family:FlexoW01-Regular;-inkscape-font-specification:FlexoW01-Regular;fill:#ffffff;stroke:#ffffff;stroke-width:1.76600683;stroke-linecap:round;stroke-linejoin:round;stroke-miterlimit:4;stroke-dasharray:none;stroke-opacity:1"
         id="path3353"
         inkscape:connector-curvature="0" />
      <path
         d="m -768.91727,706.69162 q -0.52805,0 -0.86408,-0.10802 -0.33604,-0.10801 -0.54006,-0.36003 -0.19202,-0.25203 -0.27603,-0.64807 -0.072,-0.40804 -0.072,-0.9961 0,-0.58805 0.084,-0.9961 0.084,-0.40804 0.27602,-0.66006 0.20402,-0.25203 0.54006,-0.36004 0.34803,-0.12001 0.85208,-0.12001 0.50405,0 0.84009,0.12001 0.34803,0.10801 0.55205,0.36004 0.20402,0.25202 0.28803,0.66006 0.084,0.40805 0.084,0.9961 0,0.58806 -0.084,0.9961 -0.072,0.39604 -0.27603,0.64807 -0.20402,0.25202 -0.55205,0.36003 -0.33604,0.10802 -0.85209,0.10802 z m -1.45214,4.29643 2.91629,0 0,21.37413 -2.91629,0 0,-21.37413 z"
         style="font-style:normal;font-variant:normal;font-weight:normal;font-stretch:normal;font-family:FlexoW01-Regular;-inkscape-font-specification:FlexoW01-Regular;fill:#ffffff;stroke:#ffffff;stroke-width:1.76600683;stroke-linecap:round;stroke-linejoin:round;stroke-miterlimit:4;stroke-dasharray:none;stroke-opacity:1"
         id="path3355"
         inkscape:connector-curvature="0" />
      <path
         d="m -761.34315,702.73122 2.90429,0 0,8.77288 q 1.41614,-0.37204 2.89229,-0.58806 1.47615,-0.21602 3.0123,-0.21602 2.38824,0 4.09241,0.56405 1.70417,0.56406 2.78428,1.86019 1.08011,1.28413 1.58416,3.38434 0.50405,2.10021 0.50405,5.16051 0,3.12032 -0.55206,5.23253 -0.55205,2.10021 -1.72817,3.38433 -1.16412,1.27213 -2.9883,1.82419 -1.82418,0.54005 -4.36844,0.54005 -1.0081,0 -2.0642,-0.096 -1.04411,-0.096 -2.07621,-0.30003 -1.0321,-0.20402 -2.0282,-0.52805 -0.9841,-0.32403 -1.86019,-0.79208 -0.10801,-1.76418 -0.10801,-3.64837 l 0,-24.55445 z m 2.90429,23.18632 q 0,0.38404 0,0.81608 0.012,0.42004 0.012,0.86409 0.012,0.43204 0.024,0.86408 0.024,0.43205 0.048,0.81608 0.54005,0.25203 1.17612,0.43205 0.64806,0.18002 1.32013,0.30003 0.67207,0.10801 1.34413,0.16801 0.68407,0.06 1.30813,0.06 1.9922,0 3.28833,-0.52805 1.29613,-0.54006 2.05221,-1.60816 0.76807,-1.06811 1.0681,-2.67627 0.30003,-1.60816 0.30003,-3.75638 0,-1.50015 -0.10801,-2.71227 -0.096,-1.21212 -0.38404,-2.16021 -0.27602,-0.9601 -0.76807,-1.64417 -0.49205,-0.69607 -1.27213,-1.15211 -0.76808,-0.45605 -1.86019,-0.67207 -1.0921,-0.21602 -2.58025,-0.21602 -0.61206,0 -1.28413,0.072 -0.66007,0.06 -1.32013,0.18002 -0.64807,0.10801 -1.26013,0.26403 -0.61206,0.15601 -1.10411,0.32403 l 0,11.9652 z"
         style="font-style:normal;font-variant:normal;font-weight:normal;font-stretch:normal;font-family:FlexoW01-Regular;-inkscape-font-specification:FlexoW01-Regular;fill:#ffffff;stroke:#ffffff;stroke-width:1.76600683;stroke-linecap:round;stroke-linejoin:round;stroke-miterlimit:4;stroke-dasharray:none;stroke-opacity:1"
         id="path3357"
         inkscape:connector-curvature="0" />
      <path
         d="m -738.16991,710.98805 2.91629,0 0,13.35733 q 0,1.0081 0.072,1.83618 0.084,0.82809 0.31203,1.47615 0.22802,0.64807 0.63606,1.12811 0.42004,0.48005 1.09211,0.79208 0.68407,0.31204 1.64417,0.46805 0.97209,0.15602 2.31623,0.15602 0.66006,0 1.45214,-0.072 0.79208,-0.084 1.57216,-0.21602 0.79208,-0.14402 1.50015,-0.33604 0.70807,-0.19202 1.21212,-0.42004 0.024,-0.37204 0.036,-0.80408 0.024,-0.43204 0.024,-0.86408 0.012,-0.44405 0.012,-0.86409 0.012,-0.43204 0.012,-0.81608 l 0,-14.82148 2.90429,0 0,16.22562 q 0,1.88419 -0.10801,3.64836 -0.91209,0.39604 -1.9922,0.73208 -1.06811,0.32403 -2.29223,0.56405 -1.21212,0.22803 -2.55625,0.36004 -1.33214,0.13201 -2.76028,0.13201 -1.82418,0 -3.12031,-0.27603 -1.29613,-0.27602 -2.18422,-0.78007 -0.88809,-0.50405 -1.42814,-1.21213 -0.52806,-0.70807 -0.81609,-1.57215 -0.27602,-0.86409 -0.37203,-1.86019 -0.084,-0.9961 -0.084,-2.07621 l 0,-13.88538 z"
         style="font-style:normal;font-variant:normal;font-weight:normal;font-stretch:normal;font-family:FlexoW01-Regular;-inkscape-font-specification:FlexoW01-Regular;fill:#ffffff;stroke:#ffffff;stroke-width:1.76600683;stroke-linecap:round;stroke-linejoin:round;stroke-miterlimit:4;stroke-dasharray:none;stroke-opacity:1"
         id="path3359"
         inkscape:connector-curvature="0" />
      <path
         d="m -714.10153,711.44409 q 0.91209,-0.14401 1.83619,-0.27603 0.93609,-0.13201 1.90819,-0.24002 0.98409,-0.10801 2.0162,-0.16802 1.0441,-0.06 2.18422,-0.06 1.14011,0 2.18421,0.10801 1.04411,0.10801 1.9442,0.39604 0.91209,0.27602 1.64416,0.74407 0.74408,0.46805 1.27213,1.20012 0.52805,0.72007 0.81608,1.71617 0.28803,0.9961 0.28803,2.32824 l 0,10.093 q 0,0.9361 -0.036,1.84819 -0.024,0.91209 -0.084,1.80018 -1.89619,0.93609 -4.12841,1.33213 -2.23223,0.38404 -4.80048,0.38404 -2.14822,0 -3.72038,-0.34803 -1.56015,-0.34804 -2.59225,-1.10411 -1.02011,-0.76808 -1.52416,-1.9802 -0.49205,-1.21212 -0.49205,-2.9523 0,-1.39214 0.30003,-2.52025 0.31203,-1.12811 0.9601,-1.9682 0.64806,-0.84008 1.66817,-1.38013 1.0201,-0.54006 2.44824,-0.75608 0.9721,-0.14401 2.06421,-0.24002 1.09211,-0.10801 2.25622,-0.18002 1.16412,-0.072 2.37624,-0.12001 1.21212,-0.048 2.43624,-0.084 l 0,-0.9481 q 0,-1.30813 -0.26402,-2.24422 -0.25203,-0.93609 -0.91209,-1.52415 -0.66007,-0.60006 -1.78818,-0.87609 -1.11611,-0.28803 -2.85629,-0.28803 -1.86018,0 -3.64836,0.19202 -1.77618,0.18002 -3.49235,0.42004 l -0.26403,-2.30423 z m 1.60816,14.74948 q 0,1.23612 0.32404,2.0282 0.33603,0.79208 1.0321,1.24812 0.70807,0.45605 1.78818,0.63607 1.09211,0.16801 2.60426,0.16801 1.40414,0 2.90429,-0.20402 1.50015,-0.21602 2.88029,-0.75607 0.024,-0.38404 0.036,-0.81608 0.024,-0.43205 0.024,-0.86409 0.012,-0.44404 0.012,-0.86409 0.012,-0.43204 0.012,-0.81608 l 0,-4.75247 q -0.92409,0.024 -1.99219,0.048 -1.05611,0.024 -2.13622,0.084 -1.08011,0.06 -2.11221,0.16802 -1.0321,0.10801 -1.87219,0.27602 -0.91209,0.18002 -1.57215,0.48005 -0.66007,0.30003 -1.09211,0.80408 -0.43205,0.50405 -0.63607,1.27213 -0.20402,0.75608 -0.20402,1.86019 z"
         style="font-style:normal;font-variant:normal;font-weight:normal;font-stretch:normal;font-family:FlexoW01-Regular;-inkscape-font-specification:FlexoW01-Regular;fill:#ffffff;stroke:#ffffff;stroke-width:1.76600683;stroke-linecap:round;stroke-linejoin:round;stroke-miterlimit:4;stroke-dasharray:none;stroke-opacity:1"
         id="path3361"
         inkscape:connector-curvature="0" />
    </g>
  </g>
</svg>
